<svg width="61" height="41" viewBox="0 0 61 41" fill="none" xmlns="http://www.w3.org/2000/svg">
    <path fill-rule="evenodd" clip-rule="evenodd" d="M20.1808 0C31.2598 0 40.2411 8.98128 40.2411 20.0602C40.2411 27.5226 36.1664 34.0333 30.1206 37.4887C33.0507 39.1634 36.4438 40.1205 40.0604 40.1205C51.1393 40.1205 60.1206 31.1392 60.1206 20.0602C60.1206 8.98128 51.1393 0 40.0604 0H20.1808ZM20.0001 0.000797138L20.1808 0C20.1205 0 20.0603 0.000266083 20.0001 0.000797138Z" fill="#FADE86" />
    <path fill-rule="evenodd" clip-rule="evenodd" d="M19.8795 0.000732422C8.88377 0.0977679 0 9.04152 0 20.0602V40.1204H20.0602C23.6769 40.1204 27.0699 39.1634 30 37.4887C23.9542 34.0332 19.8795 27.5225 19.8795 20.0602V0.000732422Z" fill="#FADE86" />
</svg>