<svg width="72" height="59" viewBox="0 0 72 59" fill="none" xmlns="http://www.w3.org/2000/svg">
    <path d="M0 47.742H4.886C6.482 47.742 7.77 48.988 7.77 50.598C7.77 51.494 7.336 52.222 6.692 52.74C7.476 53.258 8.008 54.21 8.008 55.316C8.008 56.94 6.706 58.242 5.11 58.242H0V47.742ZM1.932 56.212H4.802C5.446 56.212 5.964 55.708 5.964 55.05C5.964 54.35 5.446 53.804 4.802 53.804H1.932V56.212ZM1.932 51.914H4.69C5.334 51.886 5.81 51.438 5.81 50.794C5.81 50.136 5.278 49.66 4.634 49.66H1.932V51.914Z" fill="#4F4F4F" />
    <path d="M12.5859 56.506C11.4239 56.506 10.7519 55.652 10.7519 54.518C10.7519 53.37 11.4239 52.516 12.5859 52.516C13.7479 52.516 14.4199 53.37 14.4199 54.518C14.4199 55.652 13.7479 56.506 12.5859 56.506ZM9.02989 54.518C9.02989 56.548 10.4159 58.298 12.5859 58.298C14.7559 58.298 16.1419 56.548 16.1419 54.518C16.1419 52.46 14.7559 50.724 12.5859 50.724C10.4159 50.724 9.02989 52.46 9.02989 54.518Z" fill="#4F4F4F" />
    <path d="M17.5716 50.696V58.298H19.4336V50.696H17.5716ZM17.4876 48.022C17.4876 48.582 17.8376 49.03 18.4956 49.03C19.1536 49.03 19.5036 48.582 19.5036 48.022C19.5036 47.448 19.1536 47 18.4956 47C17.8376 47 17.4876 47.448 17.4876 48.022Z" fill="#4F4F4F" />
    <path d="M21.2151 47.434V58.298H23.0911V47.434H21.2151Z" fill="#4F4F4F" />
    <path d="M29.651 53.832H25.983C26.137 52.838 26.949 52.39 27.887 52.39C28.839 52.39 29.525 52.922 29.651 53.832ZM24.233 54.518C24.233 56.548 25.549 58.284 27.873 58.284C30.337 58.284 31.037 56.604 31.037 56.604L29.357 55.89C29.357 55.89 29.105 56.604 27.887 56.604C26.851 56.604 26.235 56.1 25.983 55.316H31.401C31.401 55.316 31.485 53.888 31.037 52.754C30.995 52.67 30.253 50.724 27.873 50.724C25.549 50.724 24.233 52.46 24.233 54.518Z" fill="#4F4F4F" />
    <path d="M34.5632 51.998V50.724H32.6732V58.242H34.5632V54.518C34.5632 53.608 35.3472 52.502 36.6912 52.502V50.71C36.1452 50.71 35.0812 51.074 34.5632 51.998Z" fill="#4F4F4F" />
    <path d="M42.6128 52.964H39.9528V49.702H42.6128C43.5088 49.702 44.2508 50.43 44.2508 51.326C44.2508 52.208 43.5088 52.964 42.6128 52.964ZM38.0488 58.242H39.9528V54.91H42.5708C44.5588 54.91 46.1408 53.286 46.1408 51.326C46.1408 49.338 44.5588 47.742 42.5708 47.742H38.0488V58.242Z" fill="#4F4F4F" />
    <path d="M47.0687 47.434V58.298H48.9447V47.434H47.0687Z" fill="#4F4F4F" />
    <path d="M53.8245 56.548C52.5645 56.548 51.9905 55.708 51.9905 54.574C51.9905 53.44 52.5645 52.6 53.8245 52.6C54.7905 52.6 55.6445 53.426 55.6585 54.574C55.6445 55.722 54.7905 56.548 53.8245 56.548ZM50.0865 54.574C50.0865 56.618 51.3745 58.354 53.6425 58.354C54.4265 58.354 55.2105 58.004 55.7705 57.304V58.242L57.6745 58.228V50.78H55.7705V51.858C55.2105 51.158 54.4265 50.808 53.6425 50.808C51.3745 50.808 50.0865 52.544 50.0865 54.574Z" fill="#4F4F4F" />
    <path d="M64.4586 57.444L63.0586 56.044C62.8626 56.24 62.8206 56.268 62.6526 56.268C62.3446 56.268 62.1766 56.1 62.1766 55.694V52.474H64.2206V50.724H62.1766V47.91H60.2026V50.724H58.8866V52.474H60.2026V55.694C60.2026 57.038 61.3786 58.256 62.6526 58.256C63.3946 58.256 63.9966 57.892 64.4586 57.444Z" fill="#4F4F4F" />
    <path d="M70.1334 53.832H66.4654C66.6194 52.838 67.4314 52.39 68.3694 52.39C69.3214 52.39 70.0074 52.922 70.1334 53.832ZM64.7154 54.518C64.7154 56.548 66.0314 58.284 68.3554 58.284C70.8194 58.284 71.5194 56.604 71.5194 56.604L69.8394 55.89C69.8394 55.89 69.5874 56.604 68.3694 56.604C67.3334 56.604 66.7174 56.1 66.4654 55.316H71.8834C71.8834 55.316 71.9674 53.888 71.5194 52.754C71.4774 52.67 70.7354 50.724 68.3554 50.724C66.0314 50.724 64.7154 52.46 64.7154 54.518Z" fill="#4F4F4F" />
</svg>