<svg width="72" height="12" viewBox="0 0 72 12" fill="none" xmlns="http://www.w3.org/2000/svg">
    <path d="M0 0.742001H4.886C6.482 0.742001 7.77 1.988 7.77 3.598C7.77 4.494 7.336 5.222 6.692 5.74C7.476 6.258 8.008 7.21 8.008 8.316C8.008 9.94 6.706 11.242 5.11 11.242H0V0.742001ZM1.932 9.212H4.802C5.446 9.212 5.964 8.708 5.964 8.05C5.964 7.35 5.446 6.804 4.802 6.804H1.932V9.212ZM1.932 4.914H4.69C5.334 4.886 5.81 4.438 5.81 3.794C5.81 3.136 5.278 2.66 4.634 2.66H1.932V4.914Z" fill="#4F4F4F" />
    <path d="M12.5859 9.506C11.4239 9.506 10.7519 8.652 10.7519 7.518C10.7519 6.37 11.4239 5.516 12.5859 5.516C13.7479 5.516 14.4199 6.37 14.4199 7.518C14.4199 8.652 13.7479 9.506 12.5859 9.506ZM9.02989 7.518C9.02989 9.548 10.4159 11.298 12.5859 11.298C14.7559 11.298 16.1419 9.548 16.1419 7.518C16.1419 5.46 14.7559 3.724 12.5859 3.724C10.4159 3.724 9.02989 5.46 9.02989 7.518Z" fill="#4F4F4F" />
    <path d="M17.5716 3.696V11.298H19.4336V3.696H17.5716ZM17.4876 1.022C17.4876 1.582 17.8376 2.03 18.4956 2.03C19.1536 2.03 19.5036 1.582 19.5036 1.022C19.5036 0.447999 19.1536 0 18.4956 0C17.8376 0 17.4876 0.447999 17.4876 1.022Z" fill="#4F4F4F" />
    <path d="M21.2151 0.434002V11.298H23.0911V0.434002H21.2151Z" fill="#4F4F4F" />
    <path d="M29.651 6.832H25.983C26.137 5.838 26.949 5.39 27.887 5.39C28.839 5.39 29.525 5.922 29.651 6.832ZM24.233 7.518C24.233 9.548 25.549 11.284 27.873 11.284C30.337 11.284 31.037 9.604 31.037 9.604L29.357 8.89C29.357 8.89 29.105 9.604 27.887 9.604C26.851 9.604 26.235 9.1 25.983 8.316H31.401C31.401 8.316 31.485 6.888 31.037 5.754C30.995 5.67 30.253 3.724 27.873 3.724C25.549 3.724 24.233 5.46 24.233 7.518Z" fill="#4F4F4F" />
    <path d="M34.5632 4.998V3.724H32.6732V11.242H34.5632V7.518C34.5632 6.608 35.3472 5.502 36.6912 5.502V3.71C36.1452 3.71 35.0812 4.074 34.5632 4.998Z" fill="#4F4F4F" />
    <path d="M42.6128 5.964H39.9528V2.702H42.6128C43.5088 2.702 44.2508 3.43 44.2508 4.326C44.2508 5.208 43.5088 5.964 42.6128 5.964ZM38.0488 11.242H39.9528V7.91H42.5708C44.5588 7.91 46.1408 6.286 46.1408 4.326C46.1408 2.338 44.5588 0.742001 42.5708 0.742001H38.0488V11.242Z" fill="#4F4F4F" />
    <path d="M47.0687 0.434002V11.298H48.9447V0.434002H47.0687Z" fill="#4F4F4F" />
    <path d="M53.8245 9.548C52.5645 9.548 51.9905 8.708 51.9905 7.574C51.9905 6.44 52.5645 5.6 53.8245 5.6C54.7905 5.6 55.6445 6.426 55.6585 7.574C55.6445 8.722 54.7905 9.548 53.8245 9.548ZM50.0865 7.574C50.0865 9.618 51.3745 11.354 53.6425 11.354C54.4265 11.354 55.2105 11.004 55.7705 10.304V11.242L57.6745 11.228V3.78H55.7705V4.858C55.2105 4.158 54.4265 3.808 53.6425 3.808C51.3745 3.808 50.0865 5.544 50.0865 7.574Z" fill="#4F4F4F" />
    <path d="M64.4586 10.444L63.0586 9.044C62.8626 9.24 62.8206 9.268 62.6526 9.268C62.3446 9.268 62.1766 9.1 62.1766 8.694V5.474H64.2206V3.724H62.1766V0.91H60.2026V3.724H58.8866V5.474H60.2026V8.694C60.2026 10.038 61.3786 11.256 62.6526 11.256C63.3946 11.256 63.9966 10.892 64.4586 10.444Z" fill="#4F4F4F" />
    <path d="M70.1334 6.832H66.4654C66.6194 5.838 67.4314 5.39 68.3694 5.39C69.3214 5.39 70.0074 5.922 70.1334 6.832ZM64.7154 7.518C64.7154 9.548 66.0314 11.284 68.3554 11.284C70.8194 11.284 71.5194 9.604 71.5194 9.604L69.8394 8.89C69.8394 8.89 69.5874 9.604 68.3694 9.604C67.3334 9.604 66.7174 9.1 66.4654 8.316H71.8834C71.8834 8.316 71.9674 6.888 71.5194 5.754C71.4774 5.67 70.7354 3.724 68.3554 3.724C66.0314 3.724 64.7154 5.46 64.7154 7.518Z" fill="#4F4F4F" />
</svg>