<svg width="17" height="16" viewBox="0 0 17 16" fill="none" xmlns="http://www.w3.org/2000/svg">
    <path d="M0.5 8.41667C0.5 7.49619 1.24619 6.75 2.16667 6.75H3C3.92047 6.75 4.66667 7.49619 4.66667 8.41667V13.4167C4.66667 14.3371 3.92047 15.0833 3 15.0833H2.16667C1.24619 15.0833 0.5 14.3371 0.5 13.4167V8.41667Z" stroke="black" stroke-width="0.833333" stroke-linecap="round" stroke-linejoin="round" />
    <path d="M4.66666 8.41667C5.49999 8.41667 8.83332 6.33334 8.83332 2.16666C8.83332 0.499988 11.3333 0.499989 11.3333 2.16666C11.3333 3.83333 11.3333 4.66666 10.5 6.75H15.5C15.9602 6.75 16.3333 7.12309 16.3333 7.58333V10.283C16.3333 10.6912 16.1835 11.0852 15.9123 11.3903L13.4972 14.1073C13.181 14.4631 12.7276 14.6667 12.2515 14.6667H6.6111C6.43079 14.6667 6.25535 14.6082 6.1111 14.5L4.66666 13.4167" stroke="black" stroke-width="0.833333" stroke-linecap="round" stroke-linejoin="round" />
</svg>