<svg width="18" height="21" viewBox="0 0 18 21" fill="none" xmlns="http://www.w3.org/2000/svg">
    <path d="M2.57778 13.8446L3.2486 14.18L3.2486 14.18L2.57778 13.8446ZM1.72367 15.5528L1.05285 15.2174L1.05285 15.2174L1.72367 15.5528ZM16.2765 15.5528L15.6056 15.8882L15.6056 15.8882L16.2765 15.5528ZM9.75007 1C9.75007 0.585786 9.41428 0.25 9.00007 0.25C8.58585 0.25 8.25007 0.585786 8.25007 1H9.75007ZM9.00007 2.25C6.26508 2.25 4.53149 3.36155 3.51064 4.8199C2.52013 6.23492 2.25007 7.90173 2.25007 9H3.75007C3.75007 8.09827 3.98 6.76508 4.73949 5.6801C5.46865 4.63845 6.73506 3.75 9.00007 3.75V2.25ZM2.25007 9V12.0564H3.75007V9H2.25007ZM1.90696 13.5092L1.05285 15.2174L2.39449 15.8882L3.2486 14.18L1.90696 13.5092ZM16.9473 15.2174L16.0932 13.5092L14.7515 14.18L15.6056 15.8882L16.9473 15.2174ZM15.7501 12.0564V9H14.2501V12.0564H15.7501ZM15.7501 9C15.7501 7.90173 15.48 6.23492 14.4895 4.8199C13.4686 3.36155 11.7351 2.25 9.00007 2.25V3.75C11.2651 3.75 12.5315 4.63845 13.2606 5.6801C14.0201 6.76508 14.2501 8.09827 14.2501 9H15.7501ZM2.6172 17.75H6.50007V16.25H2.6172V17.75ZM5.75007 17C5.75007 18.1168 6.02925 19.0652 6.62313 19.7439C7.22849 20.4357 8.07568 20.75 9.00007 20.75V19.25C8.42446 19.25 8.02165 19.0643 7.752 18.7561C7.47088 18.4348 7.25007 17.8832 7.25007 17H5.75007ZM6.50007 17.75H11.5001V16.25H6.50007V17.75ZM11.5001 17.75H15.382V16.25H11.5001V17.75ZM9.00007 20.75C9.92446 20.75 10.7716 20.4357 11.377 19.7439C11.9709 19.0652 12.2501 18.1168 12.2501 17H10.7501C10.7501 17.8832 10.5293 18.4348 10.2481 18.7561C9.97849 19.0643 9.57568 19.25 9.00007 19.25V20.75ZM16.0932 13.5092C15.8675 13.0578 15.7501 12.5608 15.7501 12.0564H14.2501C14.2501 12.794 14.4218 13.5205 14.7515 14.18L16.0932 13.5092ZM15.6056 15.8882C15.6888 16.0544 15.5679 16.25 15.382 16.25V17.75C16.683 17.75 17.5291 16.381 16.9473 15.2174L15.6056 15.8882ZM1.05285 15.2174C0.471561 16.38 1.31518 17.75 2.6172 17.75V16.25C2.43247 16.25 2.31089 16.0554 2.39449 15.8882L1.05285 15.2174ZM2.25007 12.0564C2.25007 12.5608 2.13266 13.0578 1.90696 13.5092L3.2486 14.18C3.57832 13.5205 3.75007 12.794 3.75007 12.0564H2.25007ZM9.75007 3V1H8.25007V3H9.75007Z" fill="#000000" />
</svg>