<svg width="24" height="24" viewBox="0 0 24 24" fill="none" xmlns="http://www.w3.org/2000/svg">
    <path fill-rule="evenodd" clip-rule="evenodd" d="M3.78846 12.25C3.78846 7.57682 7.57682 3.78846 12.25 3.78846C16.9232 3.78846 20.7115 7.57682 20.7115 12.25C20.7115 16.9232 16.9232 20.7115 12.25 20.7115C7.57682 20.7115 3.78846 16.9232 3.78846 12.25ZM12.25 2.25C6.72715 2.25 2.25 6.72715 2.25 12.25C2.25 17.7728 6.72715 22.25 12.25 22.25C17.7728 22.25 22.25 17.7728 22.25 12.25C22.25 6.72715 17.7728 2.25 12.25 2.25ZM17.9093 9.72951C18.2166 9.43617 18.228 8.94925 17.9346 8.64194C17.6413 8.33464 17.1544 8.32331 16.8471 8.61665L10.0339 15.1201C9.9348 15.2147 9.77888 15.2147 9.67979 15.1201L7.65293 13.1854C7.34563 12.8921 6.85871 12.9034 6.56537 13.2107C6.27203 13.518 6.28335 14.0049 6.59066 14.2983L8.61752 16.233C9.31111 16.8951 10.4026 16.8951 11.0962 16.233L17.9093 9.72951Z" fill="#6E6BF0" />
</svg>