<svg width="17" height="16" viewBox="0 0 17 16" fill="none" xmlns="http://www.w3.org/2000/svg">
    <path d="M16.3333 7.58333C16.3333 8.50381 15.5871 9.25 14.6667 9.25L13.8333 9.25C12.9129 9.25 12.1667 8.50381 12.1667 7.58333L12.1667 2.58333C12.1667 1.66286 12.9129 0.916667 13.8333 0.916667L14.6667 0.916667C15.5871 0.916667 16.3333 1.66286 16.3333 2.58333L16.3333 7.58333Z" stroke="black" stroke-width="0.833333" stroke-linecap="round" stroke-linejoin="round" />
    <path d="M12.1667 7.58333C11.3333 7.58333 7.99999 9.66666 7.99999 13.8333C7.99999 15.5 5.49999 15.5 5.49999 13.8333C5.49999 12.1667 5.49999 11.3333 6.33332 9.25L1.33332 9.25C0.873087 9.25 0.49999 8.87691 0.49999 8.41667L0.49999 5.717C0.49999 5.30881 0.649788 4.91481 0.920974 4.60973L3.33609 1.89272C3.65236 1.53691 4.1057 1.33333 4.58177 1.33333L10.2222 1.33333C10.4025 1.33333 10.578 1.39181 10.7222 1.5L12.1667 2.58333" stroke="black" stroke-width="0.833333" stroke-linecap="round" stroke-linejoin="round" />
</svg>