<svg width="22" height="19" viewBox="0 0 22 19" fill="none" xmlns="http://www.w3.org/2000/svg">
<mask id="path-1-inside-1_35_9950" fill="white">
<path fill-rule="evenodd" clip-rule="evenodd" d="M2.11077 2.33259C-0.0371164 4.48048 -0.037116 7.96288 2.11077 10.1108L10.2425 18.2425C10.633 18.633 11.2662 18.633 11.6567 18.2425C11.6632 18.236 11.6708 18.2309 11.6791 18.2272C11.7879 18.1787 11.8898 18.1099 11.979 18.0207L20.1108 9.88894C22.2587 7.74106 22.2587 4.25865 20.1108 2.11077C17.9629 -0.0371171 14.4805 -0.0371164 12.3326 2.11077L12.1108 2.33259C11.4972 2.94613 10.5025 2.94613 9.88894 2.33259C7.74106 0.184709 4.25865 0.184708 2.11077 2.33259Z"/>
</mask>
<path fill-rule="evenodd" clip-rule="evenodd" d="M2.11077 2.33259C-0.0371164 4.48048 -0.037116 7.96288 2.11077 10.1108L10.2425 18.2425C10.633 18.633 11.2662 18.633 11.6567 18.2425C11.6632 18.236 11.6708 18.2309 11.6791 18.2272C11.7879 18.1787 11.8898 18.1099 11.979 18.0207L20.1108 9.88894C22.2587 7.74106 22.2587 4.25865 20.1108 2.11077C17.9629 -0.0371171 14.4805 -0.0371164 12.3326 2.11077L12.1108 2.33259C11.4972 2.94613 10.5025 2.94613 9.88894 2.33259C7.74106 0.184709 4.25865 0.184708 2.11077 2.33259Z" fill="#F7FAFC"/>
<path d="M2.11077 10.1108L0.696554 11.525L2.11077 10.1108ZM10.2425 18.2425L11.6567 16.8283L10.2425 18.2425ZM11.979 18.0207L10.5648 16.6065L10.5648 16.6065L11.979 18.0207ZM20.1108 9.88894L21.525 11.3032L20.1108 9.88894ZM12.3326 2.11077L10.9184 0.696553L12.3326 2.11077ZM11.6791 18.2272L12.493 20.0541L11.6791 18.2272ZM3.52498 8.69655C2.15815 7.32972 2.15815 5.11364 3.52498 3.74681L0.696554 0.918379C-2.23238 3.84731 -2.23238 8.59605 0.696554 11.525L3.52498 8.69655ZM11.6567 16.8283L3.52498 8.69655L0.696554 11.525L8.82828 19.6567L11.6567 16.8283ZM10.2425 16.8283C10.633 16.4378 11.2662 16.4378 11.6567 16.8283L8.82828 19.6567C9.99985 20.8283 11.8993 20.8283 13.0709 19.6567L10.2425 16.8283ZM10.5648 16.6065C10.6515 16.5198 10.7539 16.4499 10.8653 16.4003L12.493 20.0541C12.8219 19.9076 13.1281 19.7 13.3933 19.4349L10.5648 16.6065ZM18.6966 8.47473L10.5648 16.6065L13.3933 19.4349L21.525 11.3032L18.6966 8.47473ZM18.6966 3.52498C20.0634 4.89181 20.0634 7.10789 18.6966 8.47473L21.525 11.3032C24.4539 8.37422 24.4539 3.62549 21.525 0.696553L18.6966 3.52498ZM13.7468 3.52498C15.1136 2.15815 17.3297 2.15814 18.6966 3.52498L21.525 0.696553C18.596 -2.23238 13.8473 -2.23238 10.9184 0.696553L13.7468 3.52498ZM13.525 3.74681L13.7468 3.52498L10.9184 0.696553L10.6966 0.918379L13.525 3.74681ZM3.52498 3.74681C4.89182 2.37997 7.10789 2.37997 8.47473 3.74681L11.3032 0.918379C8.37422 -2.01055 3.62549 -2.01055 0.696554 0.918379L3.52498 3.74681ZM10.6966 0.918379C10.8641 0.75087 11.1356 0.75087 11.3032 0.918379L8.47473 3.74681C9.86932 5.14139 12.1304 5.14139 13.525 3.74681L10.6966 0.918379ZM13.0709 19.6567C12.8944 19.8332 12.6953 19.964 12.493 20.0541L10.8653 16.4003C10.6463 16.4978 10.4319 16.6388 10.2425 16.8283L13.0709 19.6567Z" fill="#718096" mask="url(#path-1-inside-1_35_9950)"/>
</svg>
