<svg width="18" height="20" viewBox="0 0 18 20" fill="none" xmlns="http://www.w3.org/2000/svg">
<path d="M16.6585 8.20153L9.6585 2.07653C9.28148 1.74663 8.71852 1.74663 8.3415 2.07652L1.3415 8.20153C1.12448 8.39141 1 8.66574 1 8.9541V17.5003C1 18.0526 1.44772 18.5003 2 18.5003H6C6.55228 18.5003 7 18.0526 7 17.5003V13.5003C7 12.948 7.44772 12.5003 8 12.5003H10C10.5523 12.5003 11 12.948 11 13.5003V17.5003C11 18.0526 11.4477 18.5003 12 18.5003H16C16.5523 18.5003 17 18.0526 17 17.5003V8.9541C17 8.66574 16.8755 8.39141 16.6585 8.20153Z" stroke="#F7FAFC" stroke-width="2" stroke-linecap="round" stroke-linejoin="round"/>
</svg>
