<svg width="18" height="18" viewBox="0 0 18 18" fill="none" xmlns="http://www.w3.org/2000/svg">
    <path d="M8.99358 0.681152C4.01499 0.681152 0 3.89311 0 7.79247C0 10.3235 1.67024 12.5398 4.17559 13.8053L3.32762 16.9724C3.31164 17.0198 3.30918 17.0708 3.32052 17.1196C3.33187 17.1683 3.35657 17.213 3.39186 17.2486C3.44333 17.2939 3.50954 17.319 3.57816 17.3192C3.63505 17.3146 3.68903 17.2922 3.73233 17.255L7.38116 14.7946C7.91977 14.869 8.46271 14.9076 9.00642 14.9102C13.9786 14.9102 18 11.6983 18 7.79247C18 3.88669 13.9657 0.681152 8.99358 0.681152Z" fill="#392020" />
</svg>