<svg width="32" height="32" viewBox="0 0 32 32" fill="none" xmlns="http://www.w3.org/2000/svg">
<path d="M16 32C24.8366 32 32 24.8366 32 16C32 7.16344 24.8366 0 16 0C7.16344 0 0 7.16344 0 16C0 24.8366 7.16344 32 16 32Z" fill="#F1F1F1"/>
<path d="M18.5 9.5C18.5 8.11929 17.3807 7 16 7C14.6193 7 13.5 8.11929 13.5 9.5V16.5C13.5 17.8807 14.6193 19 16 19C17.3807 19 18.5 17.8807 18.5 16.5V9.5Z" fill="#6E6BF0" stroke="#6E6BF0" stroke-linejoin="round"/>
<path d="M21 15.5V16.5C21 19.2614 18.7614 21.5 16 21.5C13.2386 21.5 11 19.2614 11 16.5V15.5" stroke="#6E6BF0" stroke-linecap="round" stroke-linejoin="round"/>
<path d="M16 24.5H19M16 21.5V24.5V21.5ZM16 24.5H13H16Z" stroke="#6E6BF0" stroke-linecap="round" stroke-linejoin="round"/>
</svg>
