<svg width="32" height="32" viewBox="0 0 32 32" fill="none" xmlns="http://www.w3.org/2000/svg">
<circle cx="16" cy="16" r="16" fill="#F1F1F1"/>
<rect x="13.5" y="7" width="5" height="12" rx="2.5" stroke="#282828" stroke-linejoin="round"/>
<path d="M21 15.5V16.5C21 19.2614 18.7614 21.5 16 21.5V21.5C13.2386 21.5 11 19.2614 11 16.5V15.5" stroke="#282828" stroke-linecap="round" stroke-linejoin="round"/>
<path d="M16 21.5V24.5M16 24.5H13M16 24.5H19" stroke="#282828" stroke-linecap="round" stroke-linejoin="round"/>
<path d="M9.68798 8.36285C9.87797 8.16245 10.2624 8.21848 10.5467 8.48799L23.2093 20.4928C23.4936 20.7623 23.57 21.1432 23.3801 21.3436C23.1901 21.544 22.8056 21.488 22.5213 21.2185L9.85871 9.2137C9.57443 8.94419 9.49799 8.56325 9.68798 8.36285Z" fill="#282828"/>
</svg>
