<svg width="24" height="24" viewBox="0 0 24 24" fill="none" xmlns="http://www.w3.org/2000/svg">
<path fill-rule="evenodd" clip-rule="evenodd" d="M6.41045 4.5598C6.1347 4.25071 5.6606 4.22369 5.35151 4.49944C5.04242 4.77519 5.0154 5.24929 5.29115 5.55838L7.29386 7.80323C5.29207 8.97085 3.84416 10.6251 3.18659 11.4654C2.9378 11.7834 2.9378 12.2169 3.18659 12.5349C4.26802 13.9169 7.48702 17.5001 11.7919 17.5001C13.0479 17.5001 14.2115 17.1951 15.2566 16.7287L17.5738 19.326C17.8495 19.6351 18.3236 19.6621 18.6327 19.3864C18.9418 19.1106 18.9688 18.6365 18.6931 18.3274L6.41045 4.5598ZM12.6502 13.8071L10.0943 10.9422C9.90261 11.2491 9.79185 11.6117 9.79185 12.0001C9.79185 13.1047 10.6873 14.0001 11.7919 14.0001C12.0991 14.0001 12.3901 13.9309 12.6502 13.8071ZM17.4913 15.3973L13.4024 10.8141C13.3284 10.7138 13.2452 10.6206 13.1541 10.5358L9.78465 6.75896C10.4221 6.59468 11.0926 6.50015 11.7919 6.50015C16.0967 6.50015 19.3157 10.0834 20.3971 11.4654C20.6459 11.7834 20.6459 12.2169 20.3971 12.5349C19.8796 13.1962 18.8726 14.3617 17.4913 15.3973Z" fill="#718096"/>
</svg>
