<svg width="24" height="24" viewBox="0 0 24 24" fill="none" xmlns="http://www.w3.org/2000/svg">
    <path fill-rule="evenodd" clip-rule="evenodd" d="M6.41045 4.55968C6.1347 4.25059 5.6606 4.22357 5.35151 4.49931C5.04242 4.77506 5.0154 5.24917 5.29115 5.55826L7.29386 7.80311C5.29207 8.97073 3.84416 10.625 3.18659 11.4653C2.9378 11.7832 2.9378 12.2168 3.18659 12.5348C4.26802 13.9168 7.48702 17.5 11.7919 17.5C13.0479 17.5 14.2115 17.195 15.2566 16.7285L17.5738 19.3259C17.8495 19.635 18.3236 19.662 18.6327 19.3863C18.9418 19.1105 18.9688 18.6364 18.6931 18.3273L6.41045 4.55968ZM12.6502 13.807L10.0943 10.9421C9.90261 11.249 9.79185 11.6116 9.79185 12C9.79185 13.1046 10.6873 14 11.7919 14C12.0991 14 12.3901 13.9308 12.6502 13.807ZM17.4913 15.3972L13.4024 10.814C13.3284 10.7136 13.2452 10.6205 13.1541 10.5357L9.78465 6.75884C10.4221 6.59456 11.0926 6.50003 11.7919 6.50003C16.0967 6.50003 19.3157 10.0833 20.3971 11.4653C20.6459 11.7832 20.6459 12.2168 20.3971 12.5348C19.8796 13.1961 18.8726 14.3616 17.4913 15.3972Z" fill="#718096" />
</svg>
    