<svg width="24" height="24" viewBox="0 0 24 24" fill="none" xmlns="http://www.w3.org/2000/svg">
    <path fill-rule="evenodd" clip-rule="evenodd" d="M3.18659 11.9653C4.26802 10.5833 7.48702 7 11.7919 7C16.0967 7 19.3157 10.5833 20.3971 11.9653C20.6459 12.2832 20.6459 12.7168 20.3971 13.0347C19.3157 14.4167 16.0967 18 11.7919 18C7.48702 18 4.26802 14.4167 3.18659 13.0347C2.9378 12.7168 2.9378 12.2832 3.18659 11.9653ZM11.7919 14.5C12.8964 14.5 13.7919 13.6046 13.7919 12.5C13.7919 11.3954 12.8964 10.5 11.7919 10.5C10.6873 10.5 9.79186 11.3954 9.79186 12.5C9.79186 13.6046 10.6873 14.5 11.7919 14.5Z" fill="#718096" />
</svg>