<svg width="32" height="32" viewBox="0 0 32 32" fill="none" xmlns="http://www.w3.org/2000/svg">
<circle cx="16" cy="16" r="16" fill="#F1F1F1"/>
<path d="M9 14.991L8.76872 14.5477C8.55506 14.6592 8.45132 14.9072 8.52197 15.1376L9 14.991ZM10.8565 21.0448L10.3785 21.1914C10.382 21.203 10.386 21.2144 10.3903 21.2256L10.8565 21.0448ZM19.8161 11.7623L19.3171 11.7311C19.3165 11.7415 19.3161 11.7519 19.3161 11.7623H19.8161ZM19.3161 16.9283C19.3161 17.2044 19.54 17.4283 19.8161 17.4283C20.0923 17.4283 20.3161 17.2044 20.3161 16.9283H19.3161ZM11.583 15.7175L12.0585 15.5629C12.0538 15.5486 12.0485 15.5344 12.0425 15.5205L11.583 15.7175ZM12.6323 18.9462L12.1568 19.1007C12.2289 19.3227 12.4451 19.4653 12.6776 19.4441L12.6323 18.9462ZM16.2547 21.0031C16.41 21.2315 16.721 21.2907 16.9493 21.1354C17.1777 20.9802 17.2369 20.6692 17.0816 20.4408L16.2547 21.0031ZM8.52197 15.1376L10.3785 21.1914L11.3345 20.8983L9.47803 14.8444L8.52197 15.1376ZM10.3903 21.2256C10.9378 22.6376 12.9182 25.5 16.5067 25.5V24.5C13.5087 24.5 11.7976 22.0889 11.3227 20.8641L10.3903 21.2256ZM16.5067 25.5C18.7592 25.5 20.3474 24.3439 21.3551 23.0112C22.3469 21.6994 22.8184 20.1633 22.8184 19.2691H21.8184C21.8184 19.9084 21.4423 21.2378 20.5574 22.4081C19.6885 23.5574 18.3708 24.5 16.5067 24.5V25.5ZM22.8184 19.2691V11.7623H21.8184V19.2691H22.8184ZM22.8184 11.7623C22.8184 11.4733 22.741 11.0463 22.4907 10.6754C22.2223 10.2779 21.7689 9.97086 21.1076 9.97086V10.9709C21.415 10.9709 21.5669 11.0943 21.6618 11.2349C21.7747 11.4022 21.8184 11.6209 21.8184 11.7623H22.8184ZM21.1076 9.97086C20.449 9.97086 19.9894 10.2746 19.7063 10.6584C19.4391 11.0207 19.3352 11.4417 19.3171 11.7311L20.3152 11.7935C20.324 11.6525 20.3815 11.4277 20.5111 11.2519C20.6249 11.0976 20.7976 10.9709 21.1076 10.9709V9.97086ZM19.3161 11.7623V16.9283H20.3161V11.7623H19.3161ZM9.23128 15.4343C9.48169 15.3037 9.88262 15.1827 10.253 15.2219C10.5831 15.2568 10.9096 15.4157 11.1234 15.9145L12.0425 15.5205C11.6751 14.6633 11.0196 14.2974 10.3582 14.2274C9.73711 14.1617 9.13715 14.3555 8.76872 14.5477L9.23128 15.4343ZM11.1074 15.872L12.1568 19.1007L13.1078 18.7916L12.0585 15.5629L11.1074 15.872ZM12.6776 19.4441C13.057 19.4096 13.7223 19.4436 14.4142 19.673C15.1015 19.9009 15.7837 20.3105 16.2547 21.0031L17.0816 20.4408C16.4549 19.5191 15.5631 19.0004 14.7289 18.7238C13.8992 18.4488 13.0954 18.402 12.587 18.4482L12.6776 19.4441Z" fill="#282828"/>
<path d="M17.3139 9.0987L16.8149 9.06751C16.8142 9.07789 16.8139 9.0883 16.8139 9.0987H17.3139ZM16.8139 14.3453C16.8139 14.6215 17.0378 14.8453 17.3139 14.8453C17.59 14.8453 17.8139 14.6215 17.8139 14.3453H16.8139ZM19.3161 16.8476C19.3161 17.1237 19.54 17.3476 19.8161 17.3476C20.0923 17.3476 20.3161 17.1237 20.3161 16.8476H19.3161ZM20.3161 9.0987C20.3161 8.79612 20.2221 8.36779 19.961 8.00139C19.6832 7.6114 19.2238 7.30722 18.565 7.30722V8.30722C18.8749 8.30722 19.0411 8.43354 19.1466 8.58166C19.2689 8.75338 19.3161 8.97079 19.3161 9.0987H20.3161ZM18.565 7.30722C17.9038 7.30722 17.4505 7.61372 17.1767 8.00479C16.9203 8.37116 16.8321 8.79155 16.8149 9.06751L17.8129 9.12989C17.8226 8.97536 17.8757 8.75001 17.9959 8.57826C18.0989 8.43122 18.2576 8.30722 18.565 8.30722V7.30722ZM16.8139 9.0987V14.3453H17.8139V9.0987H16.8139ZM19.3161 9.0987V16.8476H20.3161V9.0987H19.3161Z" fill="#282828"/>
<path d="M12.3094 9.74442L11.8104 9.71323C11.8098 9.72362 11.8094 9.73402 11.8094 9.74442H12.3094ZM11.8094 17.8969C11.8094 18.173 12.0333 18.3969 12.3094 18.3969C12.5856 18.3969 12.8094 18.173 12.8094 17.8969H11.8094ZM14.3117 16.9283C14.3117 17.2044 14.5355 17.4283 14.8117 17.4283C15.0878 17.4283 15.3117 17.2044 15.3117 16.9283H14.3117ZM15.3117 9.74442C15.3117 9.44184 15.2176 9.01351 14.9566 8.64711C14.6787 8.25712 14.2193 7.95294 13.5606 7.95294V8.95294C13.8704 8.95294 14.0366 9.07926 14.1421 9.22738C14.2645 9.3991 14.3117 9.61651 14.3117 9.74442H15.3117ZM13.5606 7.95294C12.8994 7.95294 12.446 8.25944 12.1723 8.65052C11.9158 9.01688 11.8277 9.43727 11.8104 9.71323L12.8085 9.77561C12.8181 9.62108 12.8713 9.39573 12.9915 9.22398C13.0944 9.07694 13.2531 8.95294 13.5606 8.95294V7.95294ZM11.8094 9.74442V17.8969H12.8094V9.74442H11.8094ZM14.3117 9.74442V16.9283H15.3117V9.74442H14.3117Z" fill="#282828"/>
<path d="M14.8116 8.29148L14.3126 8.26029C14.312 8.27067 14.3116 8.28108 14.3116 8.29148H14.8116ZM14.3116 13.5381C14.3116 13.8143 14.5355 14.0381 14.8116 14.0381C15.0878 14.0381 15.3116 13.8143 15.3116 13.5381H14.3116ZM16.8139 16.9283C16.8139 17.2044 17.0377 17.4283 17.3139 17.4283C17.59 17.4283 17.8139 17.2044 17.8139 16.9283H16.8139ZM17.8139 8.29148C17.8139 7.9889 17.7198 7.56057 17.4588 7.19417C17.1809 6.80418 16.7215 6.5 16.0628 6.5V7.5C16.3726 7.5 16.5388 7.62632 16.6443 7.77444C16.7667 7.94616 16.8139 8.16357 16.8139 8.29148H17.8139ZM16.0628 6.5C15.4016 6.5 14.9482 6.80649 14.6745 7.19757C14.418 7.56394 14.3299 7.98433 14.3126 8.26029L15.3107 8.32267C15.3203 8.16814 15.3735 7.94279 15.4937 7.77104C15.5966 7.624 15.7553 7.5 16.0628 7.5V6.5ZM14.3116 8.29148V13.5381H15.3116V8.29148H14.3116ZM16.8139 8.29148V16.9283H17.8139V8.29148H16.8139Z" fill="#282828"/>
</svg>
