<svg width="27" height="26" viewBox="0 0 27 26" fill="none" xmlns="http://www.w3.org/2000/svg">
<g filter="url(#filter0_di_596_12694)">
<circle cx="13.5" cy="12" r="12" fill="#FADE86"/>
</g>
<path d="M6.5 10.991L6.26872 10.5477C6.05506 10.6592 5.95132 10.9072 6.02197 11.1376L6.5 10.991ZM8.3565 17.0448L7.87848 17.1914C7.88201 17.2029 7.88596 17.2143 7.89032 17.2256L8.3565 17.0448ZM17.3161 7.7623L16.8171 7.73112C16.8165 7.7415 16.8161 7.7519 16.8161 7.7623H17.3161ZM16.8161 12.9282C16.8161 13.2044 17.04 13.4282 17.3161 13.4282C17.5923 13.4282 17.8161 13.2044 17.8161 12.9282H16.8161ZM9.08296 11.7175L9.55848 11.5629C9.55381 11.5485 9.54849 11.5344 9.54253 11.5205L9.08296 11.7175ZM10.1323 14.9462L9.65677 15.1007C9.72892 15.3227 9.94508 15.4652 10.1776 15.4441L10.1323 14.9462ZM13.7547 17.0031C13.91 17.2315 14.221 17.2907 14.4493 17.1354C14.6777 16.9801 14.7369 16.6691 14.5816 16.4408L13.7547 17.0031ZM6.02197 11.1376L7.87848 17.1914L8.83453 16.8982L6.97803 10.8444L6.02197 11.1376ZM7.89032 17.2256C8.43781 18.6375 10.4182 21.5 14.0067 21.5V20.5C11.0087 20.5 9.29761 18.0889 8.82268 16.8641L7.89032 17.2256ZM14.0067 21.5C16.2592 21.5 17.8474 20.3439 18.8551 19.0112C19.8469 17.6994 20.3184 16.1633 20.3184 15.269H19.3184C19.3184 15.9084 18.9423 17.2378 18.0574 18.4081C17.1885 19.5574 15.8708 20.5 14.0067 20.5V21.5ZM20.3184 15.269V7.7623H19.3184V15.269H20.3184ZM20.3184 7.7623C20.3184 7.47328 20.241 7.04623 19.9907 6.67539C19.7223 6.27783 19.2689 5.97083 18.6076 5.97083V6.97083C18.915 6.97083 19.0669 7.09432 19.1618 7.23487C19.2747 7.40215 19.3184 7.62083 19.3184 7.7623H20.3184ZM18.6076 5.97083C17.949 5.97083 17.4894 6.27453 17.2063 6.65836C16.9391 7.02067 16.8352 7.44166 16.8171 7.73112L17.8152 7.79349C17.824 7.65246 17.8815 7.42771 18.0111 7.2519C18.1249 7.09762 18.2976 6.97083 18.6076 6.97083V5.97083ZM16.8161 7.7623V12.9282H17.8161V7.7623H16.8161ZM6.73128 11.4343C6.98169 11.3037 7.38262 11.1827 7.75298 11.2219C8.0831 11.2568 8.40962 11.4156 8.62339 11.9144L9.54253 11.5205C9.17513 10.6632 8.51959 10.2974 7.85823 10.2274C7.23711 10.1617 6.63715 10.3555 6.26872 10.5477L6.73128 11.4343ZM8.60744 11.872L9.65677 15.1007L10.6078 14.7916L9.55848 11.5629L8.60744 11.872ZM10.1776 15.4441C10.557 15.4096 11.2223 15.4436 11.9142 15.673C12.6015 15.9009 13.2837 16.3104 13.7547 17.0031L14.5816 16.4408C13.9549 15.5191 13.0631 15.0004 12.2289 14.7238C11.3992 14.4487 10.5954 14.402 10.087 14.4482L10.1776 15.4441Z" fill="#282828"/>
<path d="M14.8139 5.09873L14.3149 5.06754C14.3142 5.07793 14.3139 5.08833 14.3139 5.09873H14.8139ZM14.3139 10.3454C14.3139 10.6215 14.5378 10.8454 14.8139 10.8454C15.09 10.8454 15.3139 10.6215 15.3139 10.3454H14.3139ZM16.8161 12.8476C16.8161 13.1238 17.04 13.3476 17.3161 13.3476C17.5923 13.3476 17.8161 13.1238 17.8161 12.8476H16.8161ZM17.8161 5.09873C17.8161 4.79615 17.7221 4.36782 17.461 4.00142C17.1832 3.61143 16.7238 3.30725 16.065 3.30725V4.30725C16.3749 4.30725 16.5411 4.43357 16.6466 4.58169C16.7689 4.75341 16.8161 4.97082 16.8161 5.09873H17.8161ZM16.065 3.30725C15.4038 3.30725 14.9505 3.61375 14.6767 4.00482C14.4203 4.37119 14.3321 4.79158 14.3149 5.06754L15.3129 5.12992C15.3226 4.97539 15.3757 4.75004 15.4959 4.57829C15.5989 4.43125 15.7576 4.30725 16.065 4.30725V3.30725ZM14.3139 5.09873V10.3454H15.3139V5.09873H14.3139ZM16.8161 5.09873V12.8476H17.8161V5.09873H16.8161Z" fill="#282828"/>
<path d="M9.80945 5.74436L9.31042 5.71317C9.30977 5.72356 9.30945 5.73396 9.30945 5.74436H9.80945ZM9.30945 13.8968C9.30945 14.173 9.53331 14.3968 9.80945 14.3968C10.0856 14.3968 10.3094 14.173 10.3094 13.8968H9.30945ZM11.8117 12.9282C11.8117 13.2044 12.0355 13.4282 12.3117 13.4282C12.5878 13.4282 12.8117 13.2044 12.8117 12.9282H11.8117ZM12.8117 5.74436C12.8117 5.44178 12.7176 5.01345 12.4566 4.64705C12.1787 4.25706 11.7193 3.95288 11.0606 3.95288V4.95288C11.3704 4.95288 11.5366 5.0792 11.6421 5.22732C11.7645 5.39904 11.8117 5.61645 11.8117 5.74436H12.8117ZM11.0606 3.95288C10.3994 3.95288 9.94601 4.25938 9.67225 4.65045C9.4158 5.01682 9.32767 5.43721 9.31042 5.71317L10.3085 5.77555C10.3181 5.62102 10.3713 5.39567 10.4915 5.22392C10.5944 5.07688 10.7531 4.95288 11.0606 4.95288V3.95288ZM9.30945 5.74436V13.8968H10.3094V5.74436H9.30945ZM11.8117 5.74436V12.9282H12.8117V5.74436H11.8117Z" fill="#282828"/>
<path d="M12.3116 4.29148L11.8126 4.26029C11.812 4.27067 11.8116 4.28108 11.8116 4.29148H12.3116ZM11.8116 9.53812C11.8116 9.81426 12.0355 10.0381 12.3116 10.0381C12.5878 10.0381 12.8116 9.81426 12.8116 9.53812H11.8116ZM14.3139 12.9283C14.3139 13.2044 14.5377 13.4283 14.8139 13.4283C15.09 13.4283 15.3139 13.2044 15.3139 12.9283H14.3139ZM15.3139 4.29148C15.3139 3.9889 15.2198 3.56057 14.9588 3.19417C14.6809 2.80418 14.2215 2.5 13.5628 2.5V3.5C13.8726 3.5 14.0388 3.62632 14.1443 3.77444C14.2667 3.94616 14.3139 4.16357 14.3139 4.29148H15.3139ZM13.5628 2.5C12.9016 2.5 12.4482 2.80649 12.1745 3.19757C11.918 3.56394 11.8299 3.98433 11.8126 4.26029L12.8107 4.32267C12.8203 4.16814 12.8735 3.94279 12.9937 3.77104C13.0966 3.624 13.2553 3.5 13.5628 3.5V2.5ZM11.8116 4.29148V9.53812H12.8116V4.29148H11.8116ZM14.3139 4.29148V12.9283H15.3139V4.29148H14.3139Z" fill="#282828"/>
<defs>
<filter id="filter0_di_596_12694" x="0.5" y="0" width="26" height="26" filterUnits="userSpaceOnUse" color-interpolation-filters="sRGB">
<feFlood flood-opacity="0" result="BackgroundImageFix"/>
<feColorMatrix in="SourceAlpha" type="matrix" values="0 0 0 0 0 0 0 0 0 0 0 0 0 0 0 0 0 0 127 0" result="hardAlpha"/>
<feOffset dy="1"/>
<feGaussianBlur stdDeviation="0.5"/>
<feComposite in2="hardAlpha" operator="out"/>
<feColorMatrix type="matrix" values="0 0 0 0 0 0 0 0 0 0 0 0 0 0 0 0 0 0 0.25 0"/>
<feBlend mode="normal" in2="BackgroundImageFix" result="effect1_dropShadow_596_12694"/>
<feBlend mode="normal" in="SourceGraphic" in2="effect1_dropShadow_596_12694" result="shape"/>
<feColorMatrix in="SourceAlpha" type="matrix" values="0 0 0 0 0 0 0 0 0 0 0 0 0 0 0 0 0 0 127 0" result="hardAlpha"/>
<feOffset dx="1" dy="2"/>
<feGaussianBlur stdDeviation="0.5"/>
<feComposite in2="hardAlpha" operator="arithmetic" k2="-1" k3="1"/>
<feColorMatrix type="matrix" values="0 0 0 0 1 0 0 0 0 1 0 0 0 0 1 0 0 0 0.15 0"/>
<feBlend mode="normal" in2="shape" result="effect2_innerShadow_596_12694"/>
</filter>
</defs>
</svg>
