<svg width="24" height="24" viewBox="0 0 24 24" fill="none" xmlns="http://www.w3.org/2000/svg">
<path d="M13.3333 8.58333C12.9191 8.58333 12.5833 8.91912 12.5833 9.33333C12.5833 9.74755 12.9191 10.0833 13.3333 10.0833V8.58333ZM16.6667 9.33333V10.0833C17.0809 10.0833 17.4167 9.74755 17.4167 9.33333H16.6667ZM17.4167 6C17.4167 5.58579 17.0809 5.25 16.6667 5.25C16.2525 5.25 15.9167 5.58579 15.9167 6H17.4167ZM13.3333 10.0833H16.6667V8.58333H13.3333V10.0833ZM17.4167 9.33333V6H15.9167V9.33333H17.4167Z" fill="#4F4F4F"/>
<path d="M16.4729 14.9047C15.8517 15.8613 14.9402 16.5935 13.8721 16.9939C12.8041 17.3943 11.6359 17.4417 10.5389 17.1292C9.44192 16.8168 8.47402 16.1608 7.7773 15.2578C7.08057 14.3547 6.69172 13.252 6.66784 12.1117C6.64395 10.9713 6.98628 9.85332 7.64458 8.92185C8.30287 7.99038 9.24245 7.2945 10.3254 6.93636C11.4083 6.57821 12.5775 6.57668 13.6614 6.93199C14.7452 7.2873 15.6866 7.98072 16.3473 8.91046" stroke="#4F4F4F" stroke-width="1.5" stroke-linecap="round" stroke-linejoin="round"/>
</svg>
