<svg width="18" height="18" viewBox="0 0 18 18" fill="none" xmlns="http://www.w3.org/2000/svg">
    <path d="M16.4697 17.5303C16.7626 17.8232 17.2374 17.8232 17.5303 17.5303C17.8232 17.2374 17.8232 16.7626 17.5303 16.4697L16.4697 17.5303ZM13.25 7.5C13.25 10.6756 10.6756 13.25 7.5 13.25V14.75C11.5041 14.75 14.75 11.5041 14.75 7.5H13.25ZM7.5 13.25C4.32436 13.25 1.75 10.6756 1.75 7.5H0.25C0.25 11.5041 3.49594 14.75 7.5 14.75V13.25ZM1.75 7.5C1.75 4.32436 4.32436 1.75 7.5 1.75V0.25C3.49594 0.25 0.25 3.49594 0.25 7.5H1.75ZM7.5 1.75C10.6756 1.75 13.25 4.32436 13.25 7.5H14.75C14.75 3.49594 11.5041 0.25 7.5 0.25V1.75ZM17.5303 16.4697L12.5303 11.4697L11.4697 12.5303L16.4697 17.5303L17.5303 16.4697Z" fill="#000000" />
</svg>