<svg width="24" height="24" viewBox="0 0 24 24" fill="none" xmlns="http://www.w3.org/2000/svg">
<path d="M22 12C22 17.5228 17.5228 22 12 22C6.47715 22 2 17.5228 2 12C2 6.47715 6.47715 2 12 2C17.5228 2 22 6.47715 22 12Z" fill="#6E6BF0"/>
<path fill-rule="evenodd" clip-rule="evenodd" d="M17.2925 8.23214C17.5785 8.53177 17.5675 9.00651 17.2679 9.29252L10.625 15.6334C9.94876 16.2789 8.88458 16.2789 8.20834 15.6334L6.23214 13.7471C5.93252 13.4611 5.92148 12.9863 6.20748 12.6867C6.49349 12.3871 6.96823 12.376 7.26786 12.662L9.24405 14.5484C9.34066 14.6406 9.49268 14.6406 9.58929 14.5484L16.2321 8.20748C16.5318 7.92148 17.0065 7.93252 17.2925 8.23214Z" fill="white"/>
</svg>
