<svg width="18" height="18" viewBox="0 0 18 18" fill="none" xmlns="http://www.w3.org/2000/svg">
    <path d="M11.2817 9.34661L10.8917 8.70597C10.6393 8.85964 10.5006 9.14722 10.5376 9.44043C10.5746 9.73364 10.7803 9.97781 11.063 10.064L11.2817 9.34661ZM6.6086 9.34661L6.82734 10.064C7.11002 9.97781 7.31573 9.73364 7.3527 9.44043C7.38967 9.14722 7.25101 8.85964 6.99857 8.70597L6.6086 9.34661ZM1.0068 16.002L0.262541 15.9094L1.0068 16.002ZM16.8835 16.002L17.6278 15.9094V15.9094L16.8835 16.002ZM12.6952 5.5C12.6952 6.85717 11.9747 8.04675 10.8917 8.70597L11.6717 9.98724C13.1831 9.06719 14.1952 7.40213 14.1952 5.5H12.6952ZM8.94515 1.75C11.0162 1.75 12.6952 3.42893 12.6952 5.5H14.1952C14.1952 2.6005 11.8446 0.25 8.94515 0.25V1.75ZM5.19515 5.5C5.19515 3.42893 6.87409 1.75 8.94515 1.75V0.25C6.04566 0.25 3.69515 2.6005 3.69515 5.5H5.19515ZM6.99857 8.70597C5.91564 8.04675 5.19515 6.85717 5.19515 5.5H3.69515C3.69515 7.40213 4.7072 9.06719 6.21862 9.98724L6.99857 8.70597ZM6.38985 8.62921C3.14027 9.62005 0.69304 12.45 0.262541 15.9094L1.75106 16.0946C2.10728 13.2322 4.13475 10.885 6.82734 10.064L6.38985 8.62921ZM0.262541 15.9094C0.130886 16.9673 1.00717 17.75 1.94515 17.75V16.25C1.87309 16.25 1.8166 16.2207 1.78385 16.1866C1.75503 16.1566 1.74688 16.1282 1.75106 16.0946L0.262541 15.9094ZM1.94515 17.75H15.9452V16.25H1.94515V17.75ZM15.9452 17.75C16.8831 17.75 17.7594 16.9673 17.6278 15.9094L16.1392 16.0946C16.1434 16.1282 16.1353 16.1567 16.1065 16.1866C16.0737 16.2207 16.0172 16.25 15.9452 16.25V17.75ZM17.6278 15.9094C17.1973 12.45 14.75 9.62005 11.5005 8.62921L11.063 10.064C13.7556 10.885 15.783 13.2322 16.1392 16.0946L17.6278 15.9094Z" fill="#4F4F4F" />
</svg>