<svg width="32" height="32" viewBox="0 0 32 32" fill="none" xmlns="http://www.w3.org/2000/svg">
<circle cx="16" cy="16" r="16" fill="#F1F1F1"/>
<path d="M7 17H25M7 17V23C7 23.5523 7.44772 24 8 24H24C24.5523 24 25 23.5523 25 23V17M7 17L9.24359 11.6154C9.39886 11.2427 9.76297 11 10.1667 11H12.2512M25 17L22.7564 11.6154C22.6011 11.2427 22.237 11 21.8333 11H19.5" stroke="#282828" stroke-linecap="round" stroke-linejoin="round"/>
<path d="M19.1962 11L14.866 8.5C14.3877 8.22386 13.7761 8.38773 13.5 8.86603L12 11.4641C11.7239 11.9424 11.8877 12.554 12.366 12.8301L14.1603 13.866C14.3123 13.9538 14.4847 14 14.6603 14L18.0415 14C18.3987 14 18.7288 13.8094 18.9075 13.5L19.5622 12.366C19.8383 11.8877 19.6744 11.2761 19.1962 11Z" stroke="#282828" stroke-linecap="round" stroke-linejoin="round"/>
<path d="M12 13.5C11.7239 13.5 11.5 13.7239 11.5 14C11.5 14.2761 11.7239 14.5 12 14.5V13.5ZM20 14.5C20.2761 14.5 20.5 14.2761 20.5 14C20.5 13.7239 20.2761 13.5 20 13.5V14.5ZM12 14.5H20V13.5H12V14.5Z" fill="#282828"/>
</svg>
